<?xml version="1.0" encoding="UTF-8" standalone="no"?>
<!-- Created with Inkscape (http://www.inkscape.org/) -->

<svg
   xmlns:dc="http://purl.org/dc/elements/1.1/"
   xmlns:cc="http://creativecommons.org/ns#"
   xmlns:rdf="http://www.w3.org/1999/02/22-rdf-syntax-ns#"
   xmlns:svg="http://www.w3.org/2000/svg"
   xmlns="http://www.w3.org/2000/svg"
   xmlns:sodipodi="http://sodipodi.sourceforge.net/DTD/sodipodi-0.dtd"
   xmlns:inkscape="http://www.inkscape.org/namespaces/inkscape"
   width="50"
   height="50"
   viewBox="0 0 13.229166 13.229167"
   version="1.1"
   id="svg8"
   inkscape:version="0.92.5 (2060ec1f9f, 2020-04-08)"
   sodipodi:docname="no-target-0.svg">
  <defs
     id="defs2" />
  <sodipodi:namedview
     id="base"
     pagecolor="#ffffff"
     bordercolor="#666666"
     borderopacity="1.0"
     inkscape:pageopacity="0.0"
     inkscape:pageshadow="2"
     inkscape:zoom="11.2"
     inkscape:cx="16.878106"
     inkscape:cy="24.986473"
     inkscape:document-units="mm"
     inkscape:current-layer="layer1"
     showgrid="false"
     units="px"
     inkscape:window-width="1920"
     inkscape:window-height="1025"
     inkscape:window-x="0"
     inkscape:window-y="28"
     inkscape:window-maximized="1" />
  <metadata
     id="metadata5">
    <rdf:RDF>
      <cc:Work
         rdf:about="">
        <dc:format>image/svg+xml</dc:format>
        <dc:type
           rdf:resource="http://purl.org/dc/dcmitype/StillImage" />
        <dc:title />
      </cc:Work>
    </rdf:RDF>
  </metadata>
  <g
     inkscape:label="Capa 1"
     inkscape:groupmode="layer"
     id="layer1"
     transform="translate(0,-283.77082)">
    <rect
       id="rect1487"
       width="13.344624"
       height="13.311873"
       x="0.052261241"
       y="283.75491"
       style="stroke-width:0.26458332;fill:#fdf8ea;fill-opacity:0.99543381" />
    <path
       style="fill:#fdf824;fill-opacity:0.99543379;stroke:#000000;stroke-width:0.26458332px;stroke-linecap:butt;stroke-linejoin:miter;stroke-opacity:1"
       d="m 0.40090428,293.89298 c 1.00994592,1.15149 3.92691062,2.36822 6.77657992,1.88842 2.1009399,-0.35374 3.6194958,-1.67647 4.5061408,-3.31746 0.805207,-1.49027 1.282382,-4.32801 0.644182,-5.28611 -0.736548,-1.10575 -2.1992,-0.69572 -2.7061043,0.3842 -0.2561332,0.54567 -0.5924197,1.53968 -1.4117629,2.98568 -1.0507579,1.8544 -3.7968574,2.8621 -6.0383749,2.10915 -2.28484483,-0.68123 -2.03740736,0.96937 -1.77066062,1.23612 z"
       id="path2035"
       inkscape:connector-curvature="0"
       sodipodi:nodetypes="cssssscc" />
    <path
       style="fill:none;stroke:#000000;stroke-width:0.16500001;stroke-linecap:round;stroke-linejoin:miter;stroke-miterlimit:4;stroke-dasharray:none;stroke-opacity:1"
       d="m 1.8165976,293.98485 c 0,0 1.3305945,0.51675 2.3579118,0.60862 1.9335123,0.17291 3.101678,0.05 3.8686328,-0.34135 1.1947424,-0.60966 2.2801428,-1.5201 2.8647948,-2.40543 0.584652,-0.88533 0.718287,-1.48668 0.902035,-2.20497 0.183747,-0.71829 0.100226,-1.46998 0.100226,-1.46998"
       id="path2043"
       inkscape:connector-curvature="0"
       sodipodi:nodetypes="cssscc" />
    <path
       style="fill:#954200;stroke:#000000;stroke-width:0.26458332px;stroke-linecap:butt;stroke-linejoin:round;stroke-opacity:1;fill-opacity:0.99543381"
       d="m 0.26726952,293.07447 c 0,0 -0.11717263,0.70223 0.13363476,0.81851 0.1414765,0.0656 0.87476532,-0.2121 0.87476532,-0.2121 0.1280926,-0.18396 0.1086285,-0.28842 0.070871,-0.49609 0,0 -0.2902375,-0.50971 -0.55851044,-0.62305 -0.15302651,-0.0646 -0.4423156,0.30618 -0.52076064,0.51273"
       id="path2045"
       inkscape:connector-curvature="0"
       sodipodi:nodetypes="csccsc" />
    <path
       style="fill:#954200;fill-opacity:0.99607843;stroke:#000000;stroke-width:0.16500001;stroke-linecap:butt;stroke-linejoin:miter;stroke-miterlimit:4;stroke-dasharray:none;stroke-opacity:1"
       d="m 10.431864,286.79363 c 0,0 0.350791,-0.4009 0.392552,-0.60971 0.04176,-0.2088 -0.0167,-0.48442 -0.02506,-0.55959 -0.0084,-0.0752 -0.08352,-0.39255 -0.08352,-0.39255 0,0 0.567948,0.0418 0.726639,-0.11694 0.158691,-0.15869 -0.04176,0.7517 -0.04176,0.7517 0,0 0.101671,0.66268 0.51397,0.8256 0.170743,0.0675 0.01005,0.49481 0.01005,0.49481 0,0 -0.365327,-0.33485 -0.540717,-0.48519 -0.175396,-0.15034 -0.298898,0.26702 -0.298898,0.26702 0,0 -0.07585,-0.15595 -0.234541,-0.20603 -0.158691,-0.0501 -0.412803,0.25533 -0.412803,0.25533 z"
       id="path2047"
       inkscape:connector-curvature="0"
       sodipodi:nodetypes="ccccccscccccc" />
  </g>
</svg>
