<?xml version="1.0" encoding="UTF-8" standalone="no"?>
<!-- Created with Inkscape (http://www.inkscape.org/) -->

<svg
   xmlns:dc="http://purl.org/dc/elements/1.1/"
   xmlns:cc="http://creativecommons.org/ns#"
   xmlns:rdf="http://www.w3.org/1999/02/22-rdf-syntax-ns#"
   xmlns:svg="http://www.w3.org/2000/svg"
   xmlns="http://www.w3.org/2000/svg"
   xmlns:sodipodi="http://sodipodi.sourceforge.net/DTD/sodipodi-0.dtd"
   xmlns:inkscape="http://www.inkscape.org/namespaces/inkscape"
   width="50"
   height="50"
   viewBox="0 0 13.229166 13.229167"
   version="1.1"
   id="svg8"
   inkscape:version="0.92.5 (2060ec1f9f, 2020-04-08)"
   sodipodi:docname="no-target-0.svg">
  <defs
     id="defs2" />
  <sodipodi:namedview
     id="base"
     pagecolor="#ffffff"
     bordercolor="#666666"
     borderopacity="1.0"
     inkscape:pageopacity="0.0"
     inkscape:pageshadow="2"
     inkscape:zoom="11.2"
     inkscape:cx="17.360347"
     inkscape:cy="32.890097"
     inkscape:document-units="mm"
     inkscape:current-layer="layer1"
     showgrid="false"
     units="px"
     inkscape:window-width="1920"
     inkscape:window-height="1025"
     inkscape:window-x="0"
     inkscape:window-y="28"
     inkscape:window-maximized="1" />
  <metadata
     id="metadata5">
    <rdf:RDF>
      <cc:Work
         rdf:about="">
        <dc:format>image/svg+xml</dc:format>
        <dc:type
           rdf:resource="http://purl.org/dc/dcmitype/StillImage" />
        <dc:title></dc:title>
      </cc:Work>
    </rdf:RDF>
  </metadata>
  <g
     inkscape:label="Capa 1"
     inkscape:groupmode="layer"
     id="layer1"
     transform="translate(0,-283.77082)">
    <rect
       id="rect1487"
       width="13.344624"
       height="13.311873"
       x="0.019490972"
       y="283.75491"
       style="fill:#fdf8ea;fill-opacity:0.99543379;stroke-width:0.26458332" />
    <path
       style="fill:#338800;fill-opacity:0.94520545;stroke:#000000;stroke-width:0.25438794;stroke-linecap:butt;stroke-linejoin:round;stroke-miterlimit:4;stroke-dasharray:none;stroke-opacity:1"
       d="m 1.995116,284.75786 v 4e-5 l 10.885,10.1385 c -2.70588,2.20565 -6.038892,2.13103 -9.1806682,0.0905 -3.24833731,-2.69773 -4.14011154,-6.89285 -1.7043318,-10.22902 z"
       id="path2487"
       inkscape:connector-curvature="0"
       sodipodi:nodetypes="cccccc" />
    <path
       style="fill:#ffffff;fill-opacity:0.94520545;stroke:#000000;stroke-width:0.25398797px;stroke-linecap:butt;stroke-linejoin:miter;stroke-opacity:1"
       d="m 12.306325,294.39853 c -1.824171,1.54142 -4.3927764,2.73025 -8.2660109,-0.0454 -3.18015842,-2.27887 -3.44303816,-7.4983 -1.4628849,-9.03246 l 0.4868768,0.48059 c -1.8382837,1.05057 -1.4912175,5.86983 1.2941501,8.05401 2.4731488,1.93934 5.2968775,2.2097 7.4308879,0.0679 z"
       id="path2489"
       inkscape:connector-curvature="0"
       sodipodi:nodetypes="csccscc" />
    <path
       style="fill:#ff0500;fill-opacity:0.94520545;stroke:#000000;stroke-width:0.25398797px;stroke-linecap:butt;stroke-linejoin:miter;stroke-opacity:1"
       d="m 3.064306,285.80134 8.725038,8.12183 c -2.1285219,2.40642 -5.5780759,1.94607 -8.1580694,-0.72407 -1.4482332,-1.49884 -2.5689789,-5.84831 -0.5669686,-7.39776 z"
       id="path2491"
       inkscape:connector-curvature="0"
       sodipodi:nodetypes="ccsc" />
    <path
       style="fill:#000500;fill-opacity:0.94520545;stroke:none;stroke-width:0.42433798px;stroke-linecap:butt;stroke-linejoin:miter;stroke-opacity:1"
       d="m 3.2437204,286.83529 c 0,0 -0.2850292,0.0233 -0.4002936,0.0975 -0.05308,0.0344 -0.1046101,0.0876 -0.1161416,0.14964 -0.014897,0.08 0.013677,0.17525 0.070517,0.23364 0.053452,0.0554 0.1424129,0.0797 0.2191623,0.0731 0.050744,-0.005 0.1001564,-0.0351 0.1344529,-0.0727 0.037981,-0.0416 0.052945,-0.10054 0.066425,-0.15508 0.026174,-0.10612 0.025732,-0.32664 0.025732,-0.32664 z"
       id="path2493"
       inkscape:connector-curvature="0"
       sodipodi:nodetypes="cssssssc" />
    <path
       style="fill:#000500;fill-opacity:0.94520545;stroke:none;stroke-width:0.42433798px;stroke-linecap:butt;stroke-linejoin:miter;stroke-opacity:1"
       d="m 3.858803,287.53375 c 0,0 -0.2850294,0.0234 -0.4002938,0.0975 -0.05308,0.0343 -0.10461,0.0875 -0.1161414,0.14964 -0.014897,0.08 0.013677,0.17525 0.070517,0.23364 0.053452,0.0554 0.142413,0.0797 0.2191622,0.0731 0.050744,-0.005 0.1001575,-0.0351 0.134453,-0.0727 0.037981,-0.0416 0.052945,-0.10053 0.066425,-0.15508 0.026174,-0.10612 0.025732,-0.32663 0.025732,-0.32663 z"
       id="path2493-5"
       inkscape:connector-curvature="0"
       sodipodi:nodetypes="cssssssc" />
    <path
       style="fill:#000500;fill-opacity:0.94520545;stroke:none;stroke-width:0.42433798px;stroke-linecap:butt;stroke-linejoin:miter;stroke-opacity:1"
       d="m 3.3285393,288.5579 c 0,0 -0.2850293,0.0234 -0.4002937,0.0975 -0.05308,0.0344 -0.10461,0.0876 -0.1161415,0.14965 -0.014897,0.08 0.013677,0.17525 0.070517,0.23363 0.053452,0.0554 0.142413,0.0797 0.2191623,0.0731 0.050744,-0.005 0.1001575,-0.0351 0.1344529,-0.0727 0.037981,-0.0416 0.052945,-0.10054 0.066425,-0.15509 0.026174,-0.10612 0.025732,-0.32663 0.025732,-0.32663 z"
       id="path2493-3"
       inkscape:connector-curvature="0"
       sodipodi:nodetypes="cssssssc" />
    <path
       style="fill:#000500;fill-opacity:0.94520545;stroke:none;stroke-width:0.42433798px;stroke-linecap:butt;stroke-linejoin:miter;stroke-opacity:1"
       d="m 4.7104385,288.66993 c 0,0 -0.2850293,0.0233 -0.4002937,0.0975 -0.05308,0.0344 -0.10461,0.0875 -0.1161415,0.14964 -0.014897,0.08 0.013677,0.17526 0.070517,0.23364 0.053452,0.0554 0.142413,0.0797 0.2191623,0.0731 0.050744,-0.005 0.1001575,-0.0351 0.1344529,-0.0727 0.037981,-0.0416 0.052945,-0.10054 0.066425,-0.15508 0.026173,-0.10612 0.025732,-0.32663 0.025732,-0.32663 z"
       id="path2493-56"
       inkscape:connector-curvature="0"
       sodipodi:nodetypes="cssssssc" />
    <path
       style="fill:#000500;fill-opacity:0.94520545;stroke:none;stroke-width:0.42433798px;stroke-linecap:butt;stroke-linejoin:miter;stroke-opacity:1"
       d="m 3.9712832,289.98211 c 0,0 -0.2850293,0.0233 -0.4002937,0.0975 -0.05308,0.0343 -0.10461,0.0875 -0.1161414,0.14964 -0.014897,0.08 0.013677,0.17524 0.070517,0.23363 0.053452,0.0554 0.142413,0.0797 0.2191623,0.0731 0.050744,-0.005 0.1001575,-0.0351 0.1344529,-0.0727 0.037981,-0.0416 0.052945,-0.10054 0.066425,-0.15509 0.026174,-0.10611 0.025732,-0.32664 0.025732,-0.32664 z"
       id="path2493-2"
       inkscape:connector-curvature="0"
       sodipodi:nodetypes="cssssssc" />
    <path
       style="fill:#000500;fill-opacity:0.94520545;stroke:none;stroke-width:0.42433798px;stroke-linecap:butt;stroke-linejoin:miter;stroke-opacity:1"
       d="m 5.5942113,290.04612 c 0,0 -0.2850294,0.0233 -0.4002938,0.0975 -0.05308,0.0343 -0.10461,0.0875 -0.1161414,0.14964 -0.014897,0.08 0.013677,0.17524 0.070517,0.23363 0.053452,0.0554 0.142413,0.0797 0.2191622,0.0731 0.050745,-0.005 0.1001575,-0.0351 0.134453,-0.0727 0.037981,-0.0416 0.052945,-0.10054 0.066425,-0.15509 0.026174,-0.10611 0.025732,-0.32663 0.025732,-0.32663 z"
       id="path2493-9"
       inkscape:connector-curvature="0"
       sodipodi:nodetypes="cssssssc" />
    <path
       style="fill:#000500;fill-opacity:0.94520545;stroke:none;stroke-width:0.42433798px;stroke-linecap:butt;stroke-linejoin:miter;stroke-opacity:1"
       d="m 4.9193302,290.81423 c 0,0 -0.2850292,0.0234 -0.4002936,0.0975 -0.05308,0.0344 -0.10461,0.0876 -0.1161416,0.14964 -0.014897,0.08 0.013677,0.17524 0.070517,0.23363 0.053452,0.0554 0.142413,0.0797 0.2191624,0.0731 0.050744,-0.005 0.1001575,-0.0351 0.1344529,-0.0727 0.037981,-0.0416 0.052945,-0.10054 0.066425,-0.15509 0.026174,-0.10611 0.025732,-0.32663 0.025732,-0.32663 z"
       id="path2493-1"
       inkscape:connector-curvature="0"
       sodipodi:nodetypes="cssssssc" />
    <path
       style="fill:#000500;fill-opacity:0.94520545;stroke:none;stroke-width:0.42433798px;stroke-linecap:butt;stroke-linejoin:miter;stroke-opacity:1"
       d="m 6.7029443,291.10228 c 0,0 -0.2850293,0.0233 -0.4002937,0.0975 -0.05308,0.0344 -0.10461,0.0876 -0.1161414,0.14965 -0.014897,0.08 0.013677,0.17524 0.070517,0.23363 0.053452,0.0554 0.142413,0.0797 0.2191623,0.0731 0.050744,-0.005 0.1001575,-0.0351 0.1344529,-0.0727 0.037981,-0.0416 0.052945,-0.10054 0.066425,-0.15508 0.026173,-0.10612 0.025732,-0.32663 0.025732,-0.32663 z"
       id="path2493-27"
       inkscape:connector-curvature="0"
       sodipodi:nodetypes="cssssssc" />
    <path
       style="fill:#000500;fill-opacity:0.94520545;stroke:none;stroke-width:0.42433798px;stroke-linecap:butt;stroke-linejoin:miter;stroke-opacity:1"
       d="m 5.5781427,292.0144 c 0,0 -0.2850293,0.0234 -0.4002937,0.0975 -0.05308,0.0343 -0.10461,0.0875 -0.1161415,0.14965 -0.014897,0.08 0.013677,0.17525 0.070517,0.23363 0.053452,0.0554 0.1424129,0.0797 0.2191622,0.0731 0.050744,-0.005 0.1001575,-0.0351 0.134453,-0.0727 0.037981,-0.0416 0.052945,-0.10054 0.066425,-0.15508 0.026174,-0.10612 0.025732,-0.32663 0.025732,-0.32663 z"
       id="path2493-0"
       inkscape:connector-curvature="0"
       sodipodi:nodetypes="cssssssc" />
    <path
       style="fill:#000500;fill-opacity:0.94520545;stroke:none;stroke-width:0.42433798px;stroke-linecap:butt;stroke-linejoin:miter;stroke-opacity:1"
       d="m 4.0034203,291.77437 c 0,0 -0.2850293,0.0233 -0.4002937,0.0975 -0.05308,0.0343 -0.10461,0.0875 -0.1161414,0.14964 -0.014897,0.08 0.013677,0.17524 0.070517,0.23363 0.053452,0.0554 0.1424128,0.0797 0.2191622,0.0731 0.050744,-0.005 0.1001575,-0.0351 0.1344529,-0.0727 0.037981,-0.0416 0.052945,-0.10054 0.066425,-0.15509 0.026174,-0.10611 0.025732,-0.32663 0.025732,-0.32663 z"
       id="path2493-93"
       inkscape:connector-curvature="0"
       sodipodi:nodetypes="cssssssc" />
    <path
       style="fill:#000500;fill-opacity:0.94520545;stroke:none;stroke-width:0.42433798px;stroke-linecap:butt;stroke-linejoin:miter;stroke-opacity:1"
       d="m 8.0045005,292.57449 c 0,0 -0.2850292,0.0234 -0.4002936,0.0975 -0.05308,0.0343 -0.10461,0.0876 -0.1161415,0.14965 -0.014897,0.08 0.013677,0.17524 0.070517,0.23362 0.053452,0.0554 0.1424129,0.0797 0.2191623,0.0731 0.050744,-0.005 0.1001575,-0.0351 0.1344529,-0.0727 0.037981,-0.0416 0.052945,-0.10054 0.066425,-0.15509 0.026174,-0.10611 0.025732,-0.32662 0.025732,-0.32662 z"
       id="path2493-6"
       inkscape:connector-curvature="0"
       sodipodi:nodetypes="cssssssc" />
    <path
       style="fill:#000500;fill-opacity:0.94520545;stroke:none;stroke-width:0.42433798px;stroke-linecap:butt;stroke-linejoin:miter;stroke-opacity:1"
       d="m 6.6708072,290.04612 c 0,0 -0.2850293,0.0233 -0.4002937,0.0975 -0.05308,0.0343 -0.10461,0.0875 -0.1161415,0.14964 -0.014897,0.08 0.013677,0.17524 0.070517,0.23363 0.053452,0.0554 0.142413,0.0797 0.2191623,0.0731 0.050744,-0.005 0.1001575,-0.0351 0.1344529,-0.0727 0.037981,-0.0416 0.052945,-0.10054 0.066425,-0.15509 0.026173,-0.10611 0.025732,-0.32663 0.025732,-0.32663 z"
       id="path2493-06"
       inkscape:connector-curvature="0"
       sodipodi:nodetypes="cssssssc" />
    <path
       style="fill:#000500;fill-opacity:0.94520545;stroke:none;stroke-width:0.42433798px;stroke-linecap:butt;stroke-linejoin:miter;stroke-opacity:1"
       d="m 9.7720461,293.13455 c 0,0 -0.2850293,0.0234 -0.4002937,0.0975 -0.05308,0.0344 -0.10461,0.0876 -0.1161415,0.14965 -0.014897,0.08 0.013677,0.17524 0.070517,0.23362 0.053452,0.0554 0.1424129,0.0797 0.2191623,0.0731 0.050744,-0.005 0.1001564,-0.0351 0.1344529,-0.0727 0.037981,-0.0416 0.052945,-0.10054 0.066425,-0.15509 0.026175,-0.10611 0.025732,-0.32662 0.025732,-0.32662 z"
       id="path2493-06-2"
       inkscape:connector-curvature="0"
       sodipodi:nodetypes="cssssssc" />
    <path
       style="fill:#000500;fill-opacity:0.94520545;stroke:none;stroke-width:0.42433798px;stroke-linecap:butt;stroke-linejoin:miter;stroke-opacity:1"
       d="m 7.940226,291.3103 c 0,0 -0.2850291,0.0233 -0.4002935,0.0975 -0.05308,0.0344 -0.10461,0.0876 -0.1161414,0.14966 -0.014897,0.08 0.013677,0.17524 0.070517,0.23362 0.053452,0.0554 0.142413,0.0797 0.2191622,0.0731 0.050744,-0.005 0.1001575,-0.0351 0.1344526,-0.0727 0.037978,-0.0416 0.052945,-0.10054 0.066422,-0.15509 0.026175,-0.10611 0.025732,-0.32663 0.025732,-0.32663 z"
       id="path2493-06-6"
       inkscape:connector-curvature="0"
       sodipodi:nodetypes="cssssssc" />
    <path
       style="fill:#000500;fill-opacity:0.94520545;stroke:none;stroke-width:0.42433798px;stroke-linecap:butt;stroke-linejoin:miter;stroke-opacity:1"
       d="m 6.6226014,292.33445 c 0,0 -0.2850292,0.0233 -0.4002936,0.0975 -0.05308,0.0344 -0.10461,0.0876 -0.1161415,0.14964 -0.014897,0.08 0.013677,0.17524 0.070517,0.23363 0.053452,0.0554 0.1424129,0.0797 0.2191623,0.0731 0.050744,-0.005 0.1001575,-0.0351 0.1344529,-0.0727 0.037981,-0.0416 0.052945,-0.10054 0.066425,-0.15509 0.026174,-0.10611 0.025732,-0.32664 0.025732,-0.32664 z"
       id="path2493-06-1"
       inkscape:connector-curvature="0"
       sodipodi:nodetypes="cssssssc" />
    <path
       style="fill:#000500;fill-opacity:0.94520545;stroke:none;stroke-width:0.42433798px;stroke-linecap:butt;stroke-linejoin:miter;stroke-opacity:1"
       d="m 5.6102799,293.23058 c 0,0 -0.2850293,0.0233 -0.4002937,0.0975 -0.05308,0.0343 -0.10461,0.0875 -0.1161415,0.14964 -0.014897,0.08 0.013677,0.17524 0.070517,0.23364 0.053452,0.0554 0.142413,0.0797 0.2191624,0.0731 0.050744,-0.005 0.1001574,-0.0351 0.1344529,-0.0727 0.037981,-0.0416 0.052945,-0.10054 0.066425,-0.15508 0.026174,-0.10612 0.025732,-0.32664 0.025732,-0.32664 z"
       id="path2493-06-8"
       inkscape:connector-curvature="0"
       sodipodi:nodetypes="cssssssc" />
    <path
       style="fill:#000500;fill-opacity:0.94520545;stroke:none;stroke-width:0.42433798px;stroke-linecap:butt;stroke-linejoin:miter;stroke-opacity:1"
       d="m 6.9118362,293.79066 c 0,0 -0.2850293,0.0233 -0.4002937,0.0975 -0.05308,0.0344 -0.10461,0.0876 -0.1161415,0.14964 -0.014897,0.08 0.013677,0.17524 0.070517,0.23363 0.053452,0.0554 0.1424129,0.0797 0.2191623,0.0731 0.050744,-0.005 0.1001575,-0.0351 0.1344528,-0.0727 0.037981,-0.0416 0.052945,-0.10054 0.066425,-0.15509 0.026174,-0.10611 0.025732,-0.32663 0.025732,-0.32663 z"
       id="path2493-06-7"
       inkscape:connector-curvature="0"
       sodipodi:nodetypes="cssssssc" />
    <path
       style="fill:#000500;fill-opacity:0.94520545;stroke:none;stroke-width:0.42433798px;stroke-linecap:butt;stroke-linejoin:miter;stroke-opacity:1"
       d="m 8.6633131,294.25472 c 0,0 -0.2850293,0.0234 -0.4002937,0.0975 -0.05308,0.0344 -0.10461,0.0876 -0.1161414,0.14964 -0.014897,0.08 0.013677,0.17524 0.070517,0.23364 0.053452,0.0554 0.1424128,0.0797 0.2191622,0.0731 0.050744,-0.005 0.1001575,-0.0351 0.134453,-0.0727 0.037981,-0.0416 0.052945,-0.10054 0.066425,-0.15508 0.026174,-0.10612 0.025732,-0.32664 0.025732,-0.32664 z"
       id="path2493-06-9"
       inkscape:connector-curvature="0"
       sodipodi:nodetypes="cssssssc" />
    <path
       style="fill:#000500;fill-opacity:0.94520545;stroke:none;stroke-width:0.42433798px;stroke-linecap:butt;stroke-linejoin:miter;stroke-opacity:1"
       d="m 9.0971651,292.20644 c 0,0 -0.2850294,0.0233 -0.4002938,0.0975 -0.05308,0.0344 -0.10461,0.0876 -0.1161414,0.14965 -0.014897,0.08 0.013677,0.17524 0.070517,0.23363 0.053452,0.0554 0.142413,0.0797 0.2191622,0.0731 0.050745,-0.005 0.1001575,-0.0351 0.134453,-0.0727 0.037981,-0.0416 0.052945,-0.10054 0.066425,-0.15508 0.026174,-0.10612 0.025732,-0.32663 0.025732,-0.32663 z"
       id="path2493-06-20"
       inkscape:connector-curvature="0"
       sodipodi:nodetypes="cssssssc" />
  </g>
</svg>
