<?xml version="1.0" encoding="UTF-8" standalone="no"?>
<!-- Created with Inkscape (http://www.inkscape.org/) -->

<svg
   xmlns:dc="http://purl.org/dc/elements/1.1/"
   xmlns:cc="http://creativecommons.org/ns#"
   xmlns:rdf="http://www.w3.org/1999/02/22-rdf-syntax-ns#"
   xmlns:svg="http://www.w3.org/2000/svg"
   xmlns="http://www.w3.org/2000/svg"
   xmlns:sodipodi="http://sodipodi.sourceforge.net/DTD/sodipodi-0.dtd"
   xmlns:inkscape="http://www.inkscape.org/namespaces/inkscape"
   width="50"
   height="50"
   viewBox="0 0 13.229166 13.229167"
   version="1.1"
   id="svg8"
   inkscape:version="0.92.5 (2060ec1f9f, 2020-04-08)"
   sodipodi:docname="no-target-4.svg">
  <defs
     id="defs2" />
  <sodipodi:namedview
     id="base"
     pagecolor="#ffffff"
     bordercolor="#666666"
     borderopacity="1.0"
     inkscape:pageopacity="0.0"
     inkscape:pageshadow="2"
     inkscape:zoom="5.6"
     inkscape:cx="65.393175"
     inkscape:cy="5.8303675"
     inkscape:document-units="mm"
     inkscape:current-layer="layer1"
     showgrid="false"
     units="px"
     inkscape:window-width="1920"
     inkscape:window-height="1025"
     inkscape:window-x="0"
     inkscape:window-y="28"
     inkscape:window-maximized="1" />
  <metadata
     id="metadata5">
    <rdf:RDF>
      <cc:Work
         rdf:about="">
        <dc:format>image/svg+xml</dc:format>
        <dc:type
           rdf:resource="http://purl.org/dc/dcmitype/StillImage" />
        <dc:title></dc:title>
      </cc:Work>
    </rdf:RDF>
  </metadata>
  <g
     inkscape:label="Capa 1"
     inkscape:groupmode="layer"
     id="layer1"
     transform="translate(0,-283.77082)">
    <rect
       id="rect1487"
       width="13.344624"
       height="13.311873"
       x="0.019490972"
       y="283.75491"
       style="fill:#fdf8ea;fill-opacity:0.99543379;stroke-width:0.00009068;stroke:#000000;stroke-opacity:1;stroke-miterlimit:4;stroke-dasharray:none" />
    <path
       style="fill:#f62433;fill-opacity:0.99543379;stroke:#000000;stroke-width:0.31644556px;stroke-linecap:butt;stroke-linejoin:miter;stroke-opacity:1"
       d="m 2.3161781,295.66892 c 0.7346658,0.23526 1.3707886,0.32733 2.1329466,0.44649 0.9988111,0.1611 2.0645186,0.16532 2.7243994,-0.0278 0.6234793,-0.17905 1.6569595,-0.45364 2.1533522,-0.87123 0.3460106,-0.29109 0.8742617,-0.56737 1.0982197,-0.96017 0.208873,-0.36635 0.508574,-1.15842 0.508574,-1.15842 0.183798,-3.01945 -2.0775951,-4.94757 -4.2098597,-6.72447 0,0 -1.0907212,-0.0524 -1.6104821,0.0848 -0.3459739,0.0914 -0.6568423,0.28739 -0.962723,0.47523 -0.018157,0.0108 -0.036295,0.0222 -0.054423,0.0334 -0.2990277,0.1826 -0.5856749,0.3889 -0.8476223,0.62158 -0.2889485,0.25667 -0.5471124,0.54791 -0.7911139,0.84763 -0.298601,0.3668 -0.5786832,0.75127 -0.819368,1.15841 -0.1864848,0.31546 -0.3280456,0.65558 -0.4803192,0.9889 -0.1490189,0.32621 -0.31021038,0.64874 -0.42381097,0.98889 -0.13820178,0.41382 -0.28376563,0.83598 -0.31079473,1.27144 -0.0252586,0.40692 -0.0104293,0.83649 0.14127028,1.21492 0.21516796,0.53675 0.57370322,1.04994 1.04540062,1.38445 0.2016501,0.14301 0.4709221,0.1506 0.7063543,0.226 z"
       id="path2698"
       inkscape:connector-curvature="0"
       sodipodi:nodetypes="cccssccsssassssssssc" />
    <path
       style="fill:#6fad2a;fill-opacity:1;stroke:#000000;stroke-width:0.26370326;stroke-linecap:butt;stroke-linejoin:miter;stroke-miterlimit:4;stroke-dasharray:none;stroke-opacity:1"
       d="m 6.157717,285.03875 c 1.3975817,0.91966 2.4525335,2.1753 3.5723162,3.39647 0.7976298,1.27522 1.6779818,2.49443 2.3191688,3.8561 -0.930995,-0.57901 -1.605757,-1.06876 -2.0761978,-1.99245 -0.397475,0.84889 -0.558742,1.71108 -0.6816778,2.62554 -0.7509718,-1.13225 -1.3440883,-2.37479 -0.733954,-3.64079 -1.5543437,0.11483 -2.263725,-0.42092 -3.2467406,-1.4842 0.9160393,-0.0167 1.6803458,-0.14644 2.4609073,-0.32148 -0.8748238,-0.73519 -1.3041102,-1.39396 -1.6138175,-2.43919 z"
       id="path2434"
       inkscape:connector-curvature="0"
       sodipodi:nodetypes="ccccccccc" />
    <path
       style="fill:#6fad2a;fill-opacity:1;stroke:#000000;stroke-width:0.19452953;stroke-linecap:butt;stroke-linejoin:miter;stroke-miterlimit:4;stroke-dasharray:none;stroke-opacity:1"
       d="m 9.2065158,288.40245 c 0.6548934,-0.88953 1.2183722,-1.40784 2.0760432,-1.99303 l 0.44083,0.88064 c -0.882196,0.28143 -1.593543,0.84967 -2.1168918,1.5139 z"
       id="path2436"
       inkscape:connector-curvature="0"
       sodipodi:nodetypes="ccccc" />
    <path
       style="fill:#ffff9b;fill-opacity:0.92694062;stroke:#000000;stroke-width:0.10583333;stroke-linecap:round;stroke-linejoin:round;stroke-opacity:1;stroke-miterlimit:4;stroke-dasharray:none"
       d="m 1.0008199,292.70883 c 0,0 0.2769639,0.0712 0.4101617,0.0388 0.061414,-0.0151 0.1274815,-0.0485 0.1587103,-0.1034 0.040253,-0.0707 0.04442,-0.17009 0.00981,-0.24385 -0.032383,-0.0698 -0.1084965,-0.12191 -0.1831807,-0.14079 -0.049587,-0.0119 -0.1061291,4e-4 -0.1508393,0.0247 -0.049502,0.0269 -0.082927,0.0777 -0.1135104,0.12481 -0.059454,0.0917 -0.1311879,0.30023 -0.1311879,0.30023 z"
       id="path2493-56"
       inkscape:connector-curvature="0"
       sodipodi:nodetypes="cssssssc" />
    <path
       style="fill:#ffff9b;fill-opacity:0.92694062;stroke:#000000;stroke-width:0.10583333;stroke-linecap:round;stroke-linejoin:round;stroke-opacity:1;stroke-miterlimit:4;stroke-dasharray:none"
       d="m 1.4696312,291.40686 c 0,0 0.2769639,0.0712 0.4101618,0.0388 0.061414,-0.0151 0.1274814,-0.0485 0.1587102,-0.1034 0.040253,-0.0707 0.04442,-0.17009 0.00981,-0.24385 -0.032383,-0.0698 -0.1084965,-0.12191 -0.1831807,-0.14079 -0.049587,-0.0119 -0.1061291,4e-4 -0.1508393,0.0247 -0.049502,0.0269 -0.082927,0.0777 -0.1135104,0.12481 -0.059454,0.0917 -0.1311879,0.30023 -0.1311879,0.30023 z"
       id="path2493-56-2"
       inkscape:connector-curvature="0"
       sodipodi:nodetypes="cssssssc" />
    <path
       style="fill:#ffff9b;fill-opacity:0.92694062;stroke:#000000;stroke-width:0.10583333;stroke-linecap:round;stroke-linejoin:round;stroke-opacity:1;stroke-miterlimit:4;stroke-dasharray:none"
       d="m 2.3549616,292.2922 c 0,0 0.2769639,0.0712 0.4101617,0.0388 0.061414,-0.0151 0.1274815,-0.0485 0.1587103,-0.1034 0.040253,-0.0707 0.04442,-0.17009 0.00981,-0.24385 -0.032383,-0.0698 -0.1084965,-0.12191 -0.1831807,-0.14079 -0.049587,-0.0119 -0.1061291,4e-4 -0.1508393,0.0247 -0.049502,0.0269 -0.082927,0.0777 -0.1135104,0.12481 -0.059454,0.0917 -0.1311879,0.30023 -0.1311879,0.30023 z"
       id="path2493-56-3"
       inkscape:connector-curvature="0"
       sodipodi:nodetypes="cssssssc" />
    <path
       style="fill:#ffff9b;fill-opacity:0.92694062;stroke:#000000;stroke-width:0.10583333;stroke-linecap:round;stroke-linejoin:round;stroke-opacity:1;stroke-miterlimit:4;stroke-dasharray:none"
       d="m 2.1211007,293.51162 c 0,0 0.2769639,0.0712 0.4101617,0.0388 0.061414,-0.0151 0.1274815,-0.0485 0.1587103,-0.1034 0.040253,-0.0707 0.04442,-0.17009 0.00981,-0.24385 -0.032383,-0.0698 -0.1084965,-0.12191 -0.1831807,-0.14079 -0.049587,-0.0119 -0.1061291,4e-4 -0.1508393,0.0247 -0.049502,0.0269 -0.082927,0.0777 -0.1135104,0.12481 -0.059454,0.0917 -0.1311879,0.30023 -0.1311879,0.30023 z"
       id="path2493-56-7"
       inkscape:connector-curvature="0"
       sodipodi:nodetypes="cssssssc" />
    <path
       style="fill:#ffff9b;fill-opacity:0.92694062;stroke:#000000;stroke-width:0.10583333;stroke-linecap:round;stroke-linejoin:round;stroke-opacity:1;stroke-miterlimit:4;stroke-dasharray:none"
       d="m 1.0520227,294.04616 c 0,0 0.2769639,0.0712 0.4101617,0.0388 0.061414,-0.0151 0.1274815,-0.0485 0.1587103,-0.1034 0.040253,-0.0707 0.04442,-0.17009 0.00981,-0.24385 -0.032383,-0.0698 -0.1084965,-0.12191 -0.1831807,-0.14079 -0.049587,-0.0119 -0.1061292,4e-4 -0.1508394,0.0247 -0.049502,0.0269 -0.082927,0.0777 -0.1135104,0.12481 -0.059454,0.0917 -0.1311878,0.30023 -0.1311878,0.30023 z"
       id="path2493-56-5"
       inkscape:connector-curvature="0"
       sodipodi:nodetypes="cssssssc" />
    <path
       style="fill:#ffff9b;fill-opacity:0.92694062;stroke:#000000;stroke-width:0.10583333;stroke-linecap:round;stroke-linejoin:round;stroke-opacity:1;stroke-miterlimit:4;stroke-dasharray:none"
       d="m 2.2046225,294.83126 c 0,0 0.2769639,0.0712 0.4101617,0.0388 0.061414,-0.0151 0.1274815,-0.0485 0.1587103,-0.1034 0.040253,-0.0707 0.04442,-0.17009 0.00981,-0.24385 -0.032383,-0.0698 -0.1084965,-0.12191 -0.1831807,-0.14079 -0.049587,-0.0119 -0.1061291,4e-4 -0.1508393,0.0247 -0.049502,0.0269 -0.082927,0.0777 -0.1135104,0.12481 -0.059454,0.0917 -0.1311879,0.30023 -0.1311879,0.30023 z"
       id="path2493-56-9"
       inkscape:connector-curvature="0"
       sodipodi:nodetypes="cssssssc" />
    <path
       style="fill:#ffff9b;fill-opacity:0.92694062;stroke:#000000;stroke-width:0.10583333;stroke-linecap:round;stroke-linejoin:round;stroke-opacity:1;stroke-miterlimit:4;stroke-dasharray:none"
       d="m 3.2737006,294.12967 c 0,0 0.2769639,0.0712 0.4101617,0.0388 0.061414,-0.0151 0.1274815,-0.0485 0.1587103,-0.1034 0.040253,-0.0707 0.04442,-0.17009 0.00981,-0.24385 -0.032383,-0.0698 -0.1084965,-0.12191 -0.1831807,-0.14079 -0.049587,-0.0119 -0.1061291,4e-4 -0.1508393,0.0247 -0.049502,0.0269 -0.082927,0.0777 -0.1135104,0.12481 -0.059454,0.0917 -0.1311879,0.30023 -0.1311879,0.30023 z"
       id="path2493-56-22"
       inkscape:connector-curvature="0"
       sodipodi:nodetypes="cssssssc" />
    <path
       style="fill:#ffff9b;fill-opacity:0.92694062;stroke:#000000;stroke-width:0.10583333;stroke-linecap:round;stroke-linejoin:round;stroke-opacity:1;stroke-miterlimit:4;stroke-dasharray:none"
       d="m 3.6746049,295.21546 c 0,0 0.2769639,0.0712 0.4101617,0.0388 0.061414,-0.0151 0.1274815,-0.0485 0.1587103,-0.1034 0.040253,-0.0707 0.04442,-0.17009 0.00981,-0.24385 -0.032383,-0.0698 -0.1084965,-0.12191 -0.1831807,-0.14079 -0.049587,-0.0119 -0.1061291,4e-4 -0.1508393,0.0247 -0.049502,0.0269 -0.082927,0.0777 -0.1135104,0.12481 -0.059454,0.0917 -0.1311879,0.30023 -0.1311879,0.30023 z"
       id="path2493-56-8"
       inkscape:connector-curvature="0"
       sodipodi:nodetypes="cssssssc" />
    <path
       style="fill:#ffff9b;fill-opacity:0.92694062;stroke:#000000;stroke-width:0.10583333;stroke-linecap:round;stroke-linejoin:round;stroke-opacity:1;stroke-miterlimit:4;stroke-dasharray:none"
       d="m 5.0777699,295.19876 c 0,0 0.2769639,0.0712 0.4101617,0.0388 0.061414,-0.0151 0.1274815,-0.0485 0.1587103,-0.1034 0.040253,-0.0707 0.04442,-0.17009 0.00981,-0.24385 -0.032383,-0.0698 -0.1084965,-0.12191 -0.1831807,-0.14079 -0.049587,-0.0119 -0.1061291,4e-4 -0.1508393,0.0247 -0.049502,0.0269 -0.082927,0.0777 -0.1135104,0.12481 -0.059454,0.0917 -0.1311879,0.30023 -0.1311879,0.30023 z"
       id="path2493-56-97"
       inkscape:connector-curvature="0"
       sodipodi:nodetypes="cssssssc" />
    <path
       style="fill:#ffff9b;fill-opacity:0.92694062;stroke:#000000;stroke-width:0.10583333;stroke-linecap:round;stroke-linejoin:round;stroke-opacity:1;stroke-miterlimit:4;stroke-dasharray:none"
       d="m 4.6267526,294.02945 c 0,0 0.2769639,0.0712 0.4101617,0.0388 0.061414,-0.0151 0.1274815,-0.0485 0.1587103,-0.1034 0.040253,-0.0707 0.04442,-0.17009 0.00981,-0.24385 -0.032383,-0.0698 -0.1084965,-0.12191 -0.1831807,-0.14079 -0.049587,-0.0119 -0.1061291,4e-4 -0.1508393,0.0247 -0.049502,0.0269 -0.082927,0.0777 -0.1135104,0.12481 -0.059454,0.0917 -0.1311879,0.30023 -0.1311879,0.30023 z"
       id="path2493-56-36"
       inkscape:connector-curvature="0"
       sodipodi:nodetypes="cssssssc" />
    <path
       style="fill:#ffff9b;fill-opacity:0.92694062;stroke:#000000;stroke-width:0.10583333;stroke-linecap:round;stroke-linejoin:round;stroke-opacity:1;stroke-miterlimit:4;stroke-dasharray:none"
       d="m 3.5743788,293.01048 c 0,0 0.2769639,0.0712 0.4101617,0.0388 0.061414,-0.0151 0.1274815,-0.0485 0.1587103,-0.1034 0.040253,-0.0707 0.04442,-0.17009 0.00981,-0.24385 -0.032383,-0.0698 -0.1084965,-0.12191 -0.1831807,-0.14079 -0.049587,-0.0119 -0.1061291,4e-4 -0.1508393,0.0247 -0.049502,0.0269 -0.082927,0.0777 -0.1135104,0.12481 -0.059454,0.0917 -0.1311879,0.30023 -0.1311879,0.30023 z"
       id="path2493-56-1"
       inkscape:connector-curvature="0"
       sodipodi:nodetypes="cssssssc"
       inkscape:transform-center-x="-0.96885206"
       inkscape:transform-center-y="0.76839991" />
    <path
       style="fill:#ffff9b;fill-opacity:0.92694062;stroke:#000000;stroke-width:0.10583333;stroke-linecap:round;stroke-linejoin:round;stroke-opacity:1;stroke-miterlimit:4;stroke-dasharray:none"
       d="m 2.8393876,291.07278 c 0,0 0.2769639,0.0712 0.4101617,0.0388 0.061414,-0.0151 0.1274815,-0.0485 0.1587103,-0.1034 0.040253,-0.0707 0.04442,-0.17009 0.00981,-0.24385 -0.032383,-0.0698 -0.1084965,-0.12191 -0.1831807,-0.14079 -0.049587,-0.0119 -0.1061291,4e-4 -0.1508393,0.0247 -0.049502,0.0269 -0.082927,0.0777 -0.1135104,0.12481 -0.059454,0.0917 -0.1311879,0.30023 -0.1311879,0.30023 z"
       id="path2493-56-1-2"
       inkscape:connector-curvature="0"
       sodipodi:nodetypes="cssssssc"
       inkscape:transform-center-x="-0.96885206"
       inkscape:transform-center-y="0.76839991" />
    <path
       style="fill:#ffff9b;fill-opacity:0.92694062;stroke:#000000;stroke-width:0.10583333;stroke-linecap:round;stroke-linejoin:round;stroke-opacity:1;stroke-miterlimit:4;stroke-dasharray:none"
       d="m 2.4384833,289.88678 c 0,0 0.2769639,0.0712 0.4101617,0.0388 0.061414,-0.0151 0.1274815,-0.0485 0.1587103,-0.1034 0.040253,-0.0707 0.04442,-0.17009 0.00981,-0.24385 -0.032383,-0.0698 -0.1084965,-0.12191 -0.1831807,-0.14079 -0.049587,-0.0119 -0.1061291,4e-4 -0.1508393,0.0247 -0.049502,0.0269 -0.082927,0.0777 -0.1135104,0.12481 -0.059454,0.0917 -0.1311879,0.30023 -0.1311879,0.30023 z"
       id="path2493-56-1-9"
       inkscape:connector-curvature="0"
       sodipodi:nodetypes="cssssssc"
       inkscape:transform-center-x="-0.96885206"
       inkscape:transform-center-y="0.76839991" />
    <path
       style="fill:#ffff9b;fill-opacity:0.92694062;stroke:#000000;stroke-width:0.10583333;stroke-linecap:round;stroke-linejoin:round;stroke-opacity:1;stroke-miterlimit:4;stroke-dasharray:none"
       d="m 3.8416483,291.70754 c 0,0 0.2769639,0.0712 0.4101618,0.0388 0.061414,-0.0151 0.1274814,-0.0485 0.1587102,-0.1034 0.040253,-0.0707 0.04442,-0.17009 0.00981,-0.24385 -0.032383,-0.0698 -0.1084965,-0.12191 -0.1831807,-0.14079 -0.049587,-0.0119 -0.1061291,4e-4 -0.1508393,0.0247 -0.049502,0.0269 -0.082927,0.0777 -0.1135104,0.12481 -0.059454,0.0917 -0.1311879,0.30023 -0.1311879,0.30023 z"
       id="path2493-56-1-3"
       inkscape:connector-curvature="0"
       sodipodi:nodetypes="cssssssc"
       inkscape:transform-center-x="-0.96885206"
       inkscape:transform-center-y="0.76839991" />
    <path
       style="fill:#ffff9b;fill-opacity:0.92694062;stroke:#000000;stroke-width:0.10583333;stroke-linecap:round;stroke-linejoin:round;stroke-opacity:1;stroke-miterlimit:4;stroke-dasharray:none"
       d="m 4.8105004,292.44253 c 0,0 0.2769639,0.0712 0.4101617,0.0388 0.061414,-0.0151 0.1274815,-0.0485 0.1587103,-0.1034 0.040253,-0.0707 0.04442,-0.17009 0.00981,-0.24385 -0.032383,-0.0698 -0.1084965,-0.12191 -0.1831807,-0.14079 -0.049587,-0.0119 -0.1061291,4e-4 -0.1508393,0.0247 -0.049502,0.0269 -0.082927,0.0777 -0.1135104,0.12481 -0.059454,0.0917 -0.1311879,0.30023 -0.1311879,0.30023 z"
       id="path2493-56-1-1"
       inkscape:connector-curvature="0"
       sodipodi:nodetypes="cssssssc"
       inkscape:transform-center-x="-0.96885206"
       inkscape:transform-center-y="0.76839991" />
    <path
       style="fill:#ffff9b;fill-opacity:0.92694062;stroke:#000000;stroke-width:0.10583333;stroke-linecap:round;stroke-linejoin:round;stroke-opacity:1;stroke-miterlimit:4;stroke-dasharray:none"
       d="m 5.8795785,293.86241 c 0,0 0.2769639,0.0712 0.4101617,0.0388 0.061414,-0.0151 0.1274815,-0.0485 0.1587103,-0.1034 0.040253,-0.0707 0.04442,-0.17009 0.00981,-0.24385 -0.032383,-0.0698 -0.1084965,-0.12191 -0.1831807,-0.14079 -0.049587,-0.0119 -0.1061291,4e-4 -0.1508393,0.0247 -0.049502,0.0269 -0.082927,0.0777 -0.1135104,0.12481 -0.059454,0.0917 -0.1311879,0.30023 -0.1311879,0.30023 z"
       id="path2493-56-1-94"
       inkscape:connector-curvature="0"
       sodipodi:nodetypes="cssssssc"
       inkscape:transform-center-x="-0.96885206"
       inkscape:transform-center-y="0.76839991" />
    <path
       style="fill:#ffff9b;fill-opacity:0.92694062;stroke:#000000;stroke-width:0.10583333;stroke-linecap:round;stroke-linejoin:round;stroke-opacity:1;stroke-miterlimit:4;stroke-dasharray:none"
       d="m 6.5978653,295.18205 c 0,0 0.2769639,0.0712 0.4101617,0.0388 0.061414,-0.0151 0.1274815,-0.0485 0.1587103,-0.1034 0.040253,-0.0707 0.04442,-0.17009 0.00981,-0.24385 -0.032383,-0.0698 -0.1084965,-0.12191 -0.1831807,-0.14079 -0.049587,-0.0119 -0.1061291,4e-4 -0.1508393,0.0247 -0.049502,0.0269 -0.082927,0.0777 -0.1135104,0.12481 -0.059454,0.0917 -0.1311879,0.30023 -0.1311879,0.30023 z"
       id="path2493-56-1-7"
       inkscape:connector-curvature="0"
       sodipodi:nodetypes="cssssssc"
       inkscape:transform-center-x="-0.96885206"
       inkscape:transform-center-y="0.76839991" />
    <path
       style="fill:#ffff9b;fill-opacity:0.92694062;stroke:#000000;stroke-width:0.10583333;stroke-linecap:round;stroke-linejoin:round;stroke-opacity:1;stroke-miterlimit:4;stroke-dasharray:none"
       d="m 7.2326305,294.06286 c 0,0 0.2769639,0.0712 0.4101617,0.0388 0.061414,-0.0151 0.1274815,-0.0485 0.1587103,-0.1034 0.040253,-0.0707 0.04442,-0.17009 0.00981,-0.24385 -0.032383,-0.0698 -0.1084965,-0.12191 -0.1831807,-0.14079 -0.049587,-0.0119 -0.1061291,4e-4 -0.1508393,0.0247 -0.049502,0.0269 -0.082927,0.0777 -0.1135104,0.12481 -0.059454,0.0917 -0.1311879,0.30023 -0.1311879,0.30023 z"
       id="path2493-56-1-8"
       inkscape:connector-curvature="0"
       sodipodi:nodetypes="cssssssc"
       inkscape:transform-center-x="-0.96885206"
       inkscape:transform-center-y="0.76839991" />
    <path
       style="fill:#ffff9b;fill-opacity:0.92694062;stroke:#000000;stroke-width:0.10583333;stroke-linecap:round;stroke-linejoin:round;stroke-opacity:1;stroke-miterlimit:4;stroke-dasharray:none"
       d="m 7.9008043,295.13194 c 0,0 0.2769639,0.0712 0.4101618,0.0388 0.061414,-0.0151 0.1274814,-0.0485 0.1587102,-0.1034 0.040253,-0.0707 0.04442,-0.17009 0.00981,-0.24385 -0.032383,-0.0698 -0.1084965,-0.12191 -0.1831807,-0.14079 -0.049587,-0.0119 -0.1061291,4e-4 -0.1508393,0.0247 -0.049502,0.0269 -0.082927,0.0777 -0.1135104,0.12481 -0.059454,0.0917 -0.1311879,0.30023 -0.1311879,0.30023 z"
       id="path2493-56-1-4"
       inkscape:connector-curvature="0"
       sodipodi:nodetypes="cssssssc"
       inkscape:transform-center-x="-0.96885206"
       inkscape:transform-center-y="0.76839991" />
    <path
       style="fill:#ffff9b;fill-opacity:0.92694062;stroke:#000000;stroke-width:0.10583333;stroke-linecap:round;stroke-linejoin:round;stroke-opacity:1;stroke-miterlimit:4;stroke-dasharray:none"
       d="m 6.3473002,292.60958 c 0,0 0.2769639,0.0712 0.4101617,0.0388 0.061414,-0.0151 0.1274815,-0.0485 0.1587103,-0.1034 0.040253,-0.0707 0.04442,-0.17009 0.00981,-0.24385 -0.032383,-0.0698 -0.1084965,-0.12191 -0.1831807,-0.14079 -0.049587,-0.0119 -0.1061291,4e-4 -0.1508393,0.0247 -0.049502,0.0269 -0.082927,0.0777 -0.1135104,0.12481 -0.059454,0.0917 -0.1311879,0.30023 -0.1311879,0.30023 z"
       id="path2493-56-1-5"
       inkscape:connector-curvature="0"
       sodipodi:nodetypes="cssssssc"
       inkscape:transform-center-x="-0.96885206"
       inkscape:transform-center-y="0.76839991" />
    <path
       style="fill:#ffff9b;fill-opacity:0.92694062;stroke:#000000;stroke-width:0.10583333;stroke-linecap:round;stroke-linejoin:round;stroke-opacity:1;stroke-miterlimit:4;stroke-dasharray:none"
       d="m 5.1445873,291.18971 c 0,0 0.2769639,0.0712 0.4101617,0.0388 0.061414,-0.0151 0.1274815,-0.0485 0.1587103,-0.1034 0.040253,-0.0707 0.04442,-0.17009 0.00981,-0.24385 -0.032383,-0.0698 -0.1084965,-0.12191 -0.1831807,-0.14079 -0.049587,-0.0119 -0.1061291,4e-4 -0.1508393,0.0247 -0.049502,0.0269 -0.082927,0.0777 -0.1135104,0.12481 -0.059454,0.0917 -0.1311879,0.30023 -0.1311879,0.30023 z"
       id="path2493-56-1-0"
       inkscape:connector-curvature="0"
       sodipodi:nodetypes="cssssssc"
       inkscape:transform-center-x="-0.96885206"
       inkscape:transform-center-y="0.76839991" />
    <path
       style="fill:#ffff9b;fill-opacity:0.92694062;stroke:#000000;stroke-width:0.10583333;stroke-linecap:round;stroke-linejoin:round;stroke-opacity:1;stroke-miterlimit:4;stroke-dasharray:none"
       d="m 4.1089179,290.30438 c 0,0 0.2769639,0.0712 0.4101617,0.0388 0.061414,-0.0151 0.1274815,-0.0485 0.1587103,-0.1034 0.040253,-0.0707 0.04442,-0.17009 0.00981,-0.24385 -0.032383,-0.0698 -0.1084965,-0.12191 -0.1831807,-0.14079 -0.049587,-0.0119 -0.1061291,4e-4 -0.1508393,0.0247 -0.049502,0.0269 -0.082927,0.0777 -0.1135104,0.12481 -0.059454,0.0917 -0.1311879,0.30023 -0.1311879,0.30023 z"
       id="path2493-56-1-36"
       inkscape:connector-curvature="0"
       sodipodi:nodetypes="cssssssc"
       inkscape:transform-center-x="-0.96885206"
       inkscape:transform-center-y="0.76839991" />
    <path
       style="fill:#ffff9b;fill-opacity:0.92694062;stroke:#000000;stroke-width:0.10583333;stroke-linecap:round;stroke-linejoin:round;stroke-opacity:1;stroke-miterlimit:4;stroke-dasharray:none"
       d="m 3.4741527,289.18519 c 0,0 0.2769639,0.0712 0.4101617,0.0388 0.061414,-0.0151 0.1274815,-0.0485 0.1587103,-0.1034 0.040253,-0.0707 0.04442,-0.17009 0.00981,-0.24385 -0.032383,-0.0698 -0.1084965,-0.12191 -0.1831807,-0.14079 -0.049587,-0.0119 -0.1061291,4e-4 -0.1508393,0.0247 -0.049502,0.0269 -0.082927,0.0777 -0.1135104,0.12481 -0.059454,0.0917 -0.1311879,0.30023 -0.1311879,0.30023 z"
       id="path2493-56-1-10"
       inkscape:connector-curvature="0"
       sodipodi:nodetypes="cssssssc"
       inkscape:transform-center-x="-0.96885206"
       inkscape:transform-center-y="0.76839991" />
    <path
       style="fill:#ffff9b;fill-opacity:0.92694062;stroke:#000000;stroke-width:0.10583333;stroke-linecap:round;stroke-linejoin:round;stroke-opacity:1;stroke-miterlimit:4;stroke-dasharray:none"
       d="m 5.2448134,290.03711 c 0,0 0.2769639,0.0712 0.4101617,0.0388 0.061414,-0.0151 0.1274815,-0.0485 0.1587103,-0.1034 0.040253,-0.0707 0.04442,-0.17009 0.00981,-0.24385 -0.032383,-0.0698 -0.1084965,-0.12191 -0.1831807,-0.14079 -0.049587,-0.0119 -0.1061291,4e-4 -0.1508393,0.0247 -0.049502,0.0269 -0.082927,0.0777 -0.1135104,0.12481 -0.059454,0.0917 -0.1311879,0.30023 -0.1311879,0.30023 z"
       id="path2493-56-1-6"
       inkscape:connector-curvature="0"
       sodipodi:nodetypes="cssssssc"
       inkscape:transform-center-x="-0.96885206"
       inkscape:transform-center-y="0.76839991" />
    <path
       style="fill:#ffff9b;fill-opacity:0.92694062;stroke:#000000;stroke-width:0.10583333;stroke-linecap:round;stroke-linejoin:round;stroke-opacity:1;stroke-miterlimit:4;stroke-dasharray:none"
       d="m 6.4308219,291.30664 c 0,0 0.2769639,0.0712 0.4101617,0.0388 0.061414,-0.0151 0.1274815,-0.0485 0.1587103,-0.1034 0.040253,-0.0707 0.04442,-0.17009 0.00981,-0.24385 -0.032383,-0.0698 -0.1084965,-0.12191 -0.1831807,-0.14079 -0.049587,-0.0119 -0.1061291,4e-4 -0.1508393,0.0247 -0.049502,0.0269 -0.082927,0.0777 -0.1135104,0.12481 -0.059454,0.0917 -0.1311879,0.30023 -0.1311879,0.30023 z"
       id="path2493-56-1-32"
       inkscape:connector-curvature="0"
       sodipodi:nodetypes="cssssssc"
       inkscape:transform-center-x="-0.96885206"
       inkscape:transform-center-y="0.76839991" />
    <path
       style="fill:#ffff9b;fill-opacity:0.92694062;stroke:#000000;stroke-width:0.10583333;stroke-linecap:round;stroke-linejoin:round;stroke-opacity:1;stroke-miterlimit:4;stroke-dasharray:none"
       d="m 7.5333087,292.79333 c 0,0 0.2769639,0.0712 0.4101617,0.0388 0.061414,-0.0151 0.1274815,-0.0485 0.1587103,-0.1034 0.040253,-0.0707 0.04442,-0.17009 0.00981,-0.24385 -0.032383,-0.0698 -0.1084965,-0.12191 -0.1831807,-0.14079 -0.049587,-0.0119 -0.1061291,4e-4 -0.1508393,0.0247 -0.049502,0.0269 -0.082927,0.0777 -0.1135104,0.12481 -0.059454,0.0917 -0.1311879,0.30023 -0.1311879,0.30023 z"
       id="path2493-56-1-06"
       inkscape:connector-curvature="0"
       sodipodi:nodetypes="cssssssc"
       inkscape:transform-center-x="-0.96885206"
       inkscape:transform-center-y="0.76839991" />
    <path
       style="fill:#ffff9b;fill-opacity:0.92694062;stroke:#000000;stroke-width:0.10583333;stroke-linecap:round;stroke-linejoin:round;stroke-opacity:1;stroke-miterlimit:4;stroke-dasharray:none"
       d="m 8.2682999,294.01275 c 0,0 0.2769639,0.0712 0.4101617,0.0388 0.061414,-0.0151 0.1274815,-0.0485 0.1587103,-0.1034 0.040253,-0.0707 0.04442,-0.17009 0.00981,-0.24385 -0.032383,-0.0698 -0.1084965,-0.12191 -0.1831807,-0.14079 -0.049587,-0.0119 -0.1061291,4e-4 -0.1508393,0.0247 -0.049502,0.0269 -0.082927,0.0777 -0.1135104,0.12481 -0.059454,0.0917 -0.1311879,0.30023 -0.1311879,0.30023 z"
       id="path2493-56-1-15"
       inkscape:connector-curvature="0"
       sodipodi:nodetypes="cssssssc"
       inkscape:transform-center-x="-0.96885206"
       inkscape:transform-center-y="0.76839991" />
    <path
       style="fill:#ffff9b;fill-opacity:0.92694062;stroke:#000000;stroke-width:0.10583333;stroke-linecap:round;stroke-linejoin:round;stroke-opacity:1;stroke-miterlimit:4;stroke-dasharray:none"
       d="m 4.5766395,289.03485 c 0,0 0.2769639,0.0712 0.4101618,0.0388 0.061414,-0.0151 0.1274814,-0.0485 0.1587102,-0.1034 0.040253,-0.0707 0.04442,-0.17009 0.00981,-0.24385 -0.032383,-0.0698 -0.1084965,-0.12191 -0.1831807,-0.14079 -0.049587,-0.0119 -0.1061291,4e-4 -0.1508393,0.0247 -0.049502,0.0269 -0.082927,0.0777 -0.1135104,0.12481 -0.059454,0.0917 -0.1311879,0.30023 -0.1311879,0.30023 z"
       id="path2493-56-1-54"
       inkscape:connector-curvature="0"
       sodipodi:nodetypes="cssssssc"
       inkscape:transform-center-x="-0.96885206"
       inkscape:transform-center-y="0.76839991" />
    <path
       style="fill:#ffff9b;fill-opacity:0.92694062;stroke:#000000;stroke-width:0.10583333;stroke-linecap:round;stroke-linejoin:round;stroke-opacity:1;stroke-miterlimit:4;stroke-dasharray:none"
       d="m 3.6913092,288.03259 c 0,0 0.2769639,0.0712 0.4101617,0.0388 0.061414,-0.0151 0.1274815,-0.0485 0.1587103,-0.1034 0.040253,-0.0707 0.04442,-0.17009 0.00981,-0.24385 -0.032383,-0.0698 -0.1084965,-0.12191 -0.1831807,-0.14079 -0.049587,-0.0119 -0.1061291,4e-4 -0.1508393,0.0247 -0.049502,0.0269 -0.082927,0.0777 -0.1135104,0.12481 -0.059454,0.0917 -0.1311879,0.30023 -0.1311879,0.30023 z"
       id="path2493-56-1-76"
       inkscape:connector-curvature="0"
       sodipodi:nodetypes="cssssssc"
       inkscape:transform-center-x="-0.96885206"
       inkscape:transform-center-y="0.76839991" />
    <path
       style="fill:#ffff9b;fill-opacity:0.92694062;stroke:#000000;stroke-width:0.10583333;stroke-linecap:round;stroke-linejoin:round;stroke-opacity:1;stroke-miterlimit:4;stroke-dasharray:none"
       d="m 4.9775439,287.23078 c 0,0 0.2769639,0.0712 0.4101617,0.0388 0.061414,-0.0151 0.1274815,-0.0485 0.1587103,-0.1034 0.040253,-0.0707 0.04442,-0.17009 0.00981,-0.24385 -0.032383,-0.0698 -0.1084965,-0.12191 -0.1831807,-0.14079 -0.049587,-0.0119 -0.1061291,4e-4 -0.1508393,0.0247 -0.049502,0.0269 -0.082927,0.0777 -0.1135104,0.12481 -0.059454,0.0917 -0.1311879,0.30023 -0.1311879,0.30023 z"
       id="path2493-56-1-56"
       inkscape:connector-curvature="0"
       sodipodi:nodetypes="cssssssc"
       inkscape:transform-center-x="-0.96885206"
       inkscape:transform-center-y="0.76839991" />
    <path
       style="fill:#ffff9b;fill-opacity:0.92694062;stroke:#000000;stroke-width:0.10583333;stroke-linecap:round;stroke-linejoin:round;stroke-opacity:1;stroke-miterlimit:4;stroke-dasharray:none"
       d="m 6.4642306,290.03711 c 0,0 0.2769639,0.0712 0.4101617,0.0388 0.061414,-0.0151 0.1274815,-0.0485 0.1587103,-0.1034 0.040253,-0.0707 0.04442,-0.17009 0.00981,-0.24385 -0.032383,-0.0698 -0.1084965,-0.12191 -0.1831807,-0.14079 -0.049587,-0.0119 -0.1061291,4e-4 -0.1508393,0.0247 -0.049502,0.0269 -0.082927,0.0777 -0.1135104,0.12481 -0.059454,0.0917 -0.1311879,0.30023 -0.1311879,0.30023 z"
       id="path2493-56-1-93"
       inkscape:connector-curvature="0"
       sodipodi:nodetypes="cssssssc"
       inkscape:transform-center-x="-0.96885206"
       inkscape:transform-center-y="0.76839991" />
    <path
       style="fill:#ffff9b;fill-opacity:0.92694062;stroke:#000000;stroke-width:0.10583333;stroke-linecap:round;stroke-linejoin:round;stroke-opacity:1;stroke-miterlimit:4;stroke-dasharray:none"
       d="m 9.5378302,293.91252 c 0,0 0.2769639,0.0712 0.4101617,0.0388 0.061414,-0.0151 0.1274811,-0.0485 0.1587101,-0.1034 0.04025,-0.0707 0.04442,-0.17009 0.0098,-0.24385 -0.03238,-0.0698 -0.108496,-0.12191 -0.1831805,-0.14079 -0.049587,-0.0119 -0.1061292,4e-4 -0.1508394,0.0247 -0.049502,0.0269 -0.082927,0.0777 -0.1135104,0.12481 -0.059454,0.0917 -0.1311878,0.30023 -0.1311878,0.30023 z"
       id="path2493-56-1-52"
       inkscape:connector-curvature="0"
       sodipodi:nodetypes="cssssssc"
       inkscape:transform-center-x="-0.96885206"
       inkscape:transform-center-y="0.76839991" />
  </g>
</svg>
